<?xml version="1.0" encoding="utf-8" ?>
<svg xmlns="http://www.w3.org/2000/svg" xmlns:xlink="http://www.w3.org/1999/xlink" width="894" height="894">
	<defs>
		<linearGradient id="gradient_0" gradientUnits="userSpaceOnUse" x1="181.92535" y1="717.91406" x2="711.44751" y2="242.8654">
			<stop offset="0" stop-color="#2076AB"/>
			<stop offset="1" stop-color="#3BA2C9"/>
		</linearGradient>
	</defs>
	<path fill="url(#gradient_0)" d="M380.001 128.688C380.428 128.634 380.855 128.584 381.282 128.525C382.931 128.299 383.731 128.097 384.7 126.628C385.976 124.696 386.317 121.276 387.285 119.012C391 110.318 395.492 102.087 401.229 94.5478Q401.982 93.5626 402.758 92.5963Q403.535 91.6301 404.336 90.6834Q405.136 89.7367 405.96 88.8102Q406.784 87.8837 407.63 86.9779Q408.477 86.0721 409.346 85.1876Q410.215 84.3031 411.105 83.4404Q411.995 82.5777 412.907 81.7374Q413.818 80.8971 414.751 80.0796Q415.683 79.2622 416.635 78.4681Q417.587 77.6741 418.559 76.9039Q419.53 76.1337 420.52 75.3879Q421.511 74.642 422.519 73.921Q423.528 73.2 424.554 72.5042Q425.58 71.8084 426.623 71.1383Q427.666 70.4682 428.726 69.8241Q429.785 69.1801 430.86 68.5626Q431.935 67.9451 433.025 67.3544Q434.115 66.7637 435.22 66.2003Q436.324 65.6369 437.442 65.101Q438.56 64.5651 439.691 64.0572Q440.822 63.5492 441.965 63.0695Q443.108 62.5898 444.263 62.1386Q445.418 61.6874 446.584 61.2649Q447.749 60.8425 448.925 60.4492Q450.101 60.0558 451.286 59.6917Q452.471 59.3277 453.665 58.9931Q454.859 58.6586 456.06 58.3537Q457.262 58.0489 458.471 57.774Q459.68 57.4991 460.895 57.2543Q462.111 57.0095 463.332 56.7949Q464.553 56.5803 465.779 56.3961Q467.005 56.2118 468.235 56.0581C472.625 55.4896 491.229 54.0476 494.333 56.4451C494.265 56.5709 494.199 56.6977 494.129 56.8226C490.607 63.1349 485.52 68.482 481.977 74.9104C469.74 97.1123 466.973 125.002 473.63 149.373C477.639 164.048 485.086 176.621 494.522 188.42C495.833 189.387 497.038 190.944 498.183 192.127Q496.147 188.262 494.339 184.285Q492.531 180.308 490.958 176.233Q489.385 172.157 488.052 167.997Q486.719 163.837 485.63 159.606Q484.542 155.375 483.702 151.088Q482.861 146.801 482.272 142.473Q481.683 138.144 481.348 133.788Q481.012 129.433 480.93 125.065C486.35 126.623 492.022 127.367 497.48 128.892C512.103 132.979 525.528 138.909 539.081 145.678C542.496 147.492 545.999 149.712 549.538 151.222C551.132 152.168 552.711 153.153 554.37 153.979C576.256 167.083 599.256 179.659 624.329 185.338L630.214 186.661C639.532 188.041 648.796 189.057 658.226 189.251C661.814 189.325 667.445 187.755 670.688 188.863C670.677 189.662 670.817 189.397 670.574 189.752C663.766 206.707 654.076 221.379 643.059 235.854Q660.777 250.41 676.473 267.127C680.801 271.769 687.445 281.035 691.925 284.554L695.526 281.459C708.139 272.353 721.644 263.103 736.289 257.567C737.299 257.097 737.804 256.595 738.917 256.891C735.251 302.663 750.185 331.793 772.021 370.304C781.207 386.504 790.097 402.987 795.962 420.734C805.099 448.38 806.46 477.173 804.233 506.041C802.701 525.895 800.214 546.447 794.807 565.652C794.791 565.862 794.786 566.073 794.758 566.281C793.728 573.925 787.547 591.334 784.874 599.03Q783.77 602.157 782.609 605.263Q781.447 608.369 780.228 611.453Q779.009 614.536 777.733 617.597Q776.458 620.658 775.125 623.694Q773.793 626.731 772.405 629.742Q771.016 632.754 769.572 635.739Q768.129 638.724 766.63 641.682Q765.131 644.64 763.577 647.569Q762.024 650.499 760.417 653.399Q758.809 656.3 757.148 659.17Q755.487 662.04 753.774 664.878Q752.06 667.717 750.294 670.524Q748.528 673.33 746.71 676.104Q744.892 678.877 743.024 681.616Q741.155 684.356 739.236 687.06Q737.316 689.764 735.347 692.432Q733.379 695.1 731.361 697.732Q729.343 700.363 727.276 702.956Q725.21 705.55 723.096 708.104Q720.982 710.659 718.82 713.174Q716.659 715.689 714.452 718.164Q712.245 720.638 709.992 723.072Q707.74 725.505 705.442 727.896Q703.145 730.287 700.803 732.635Q698.462 734.984 696.078 737.288Q693.693 739.593 691.267 741.852Q688.84 744.112 686.372 746.327Q683.904 748.541 681.395 750.71Q678.886 752.878 676.338 755Q673.79 757.122 671.202 759.196Q668.615 761.27 665.99 763.295Q663.364 765.321 660.702 767.298Q657.165 769.928 653.564 772.469Q649.963 775.011 646.3 777.463Q642.637 779.915 638.915 782.276Q635.193 784.637 631.414 786.905Q627.635 789.173 623.8 791.347Q619.966 793.521 616.08 795.6Q612.193 797.679 608.256 799.661Q604.32 801.644 600.335 803.528Q596.351 805.413 592.321 807.198Q588.291 808.984 584.218 810.669Q580.146 812.355 576.033 813.939Q571.92 815.524 567.769 817.006Q563.618 818.488 559.432 819.868Q555.245 821.247 551.026 822.523Q546.807 823.799 542.558 824.97Q538.309 826.141 534.032 827.207Q529.755 828.273 525.453 829.233Q521.151 830.193 516.827 831.046Q512.503 831.9 508.159 832.646Q503.815 833.393 499.454 834.032Q495.093 834.671 490.717 835.202Q486.342 835.733 481.954 836.156Q477.567 836.579 473.171 836.894Q468.774 837.208 464.371 837.414Q459.968 837.62 455.562 837.717Q451.155 837.814 446.748 837.802Q442.34 837.791 437.934 837.67Q433.528 837.55 429.126 837.32Q424.724 837.091 420.33 836.753Q415.935 836.416 411.55 835.969Q407.165 835.523 402.792 834.969Q398.42 834.414 394.062 833.752Q389.732 833.087 385.42 832.317Q381.107 831.547 376.815 830.672Q372.523 829.797 368.253 828.817Q363.984 827.837 359.739 826.754Q355.495 825.67 351.278 824.483Q347.061 823.297 342.875 822.007Q338.688 820.718 334.534 819.327Q330.381 817.936 326.262 816.444Q322.143 814.951 318.062 813.359Q313.981 811.767 309.941 810.076Q305.9 808.384 301.901 806.595Q297.903 804.806 293.949 802.919Q289.996 801.033 286.089 799.05Q282.183 797.068 278.326 794.991Q274.469 792.913 270.664 790.743Q266.859 788.572 263.109 786.309Q259.358 784.046 255.663 781.693Q251.969 779.339 248.333 776.896Q244.697 774.453 241.121 771.921Q237.546 769.39 234.034 766.773Q230.521 764.155 227.074 761.452Q223.626 758.75 220.246 755.964Q216.865 753.178 213.554 750.31Q210.242 747.442 207.002 744.495Q203.761 741.547 200.594 738.521Q197.426 735.496 194.333 732.393Q191.24 729.291 188.224 726.114Q185.208 722.938 182.27 719.688Q179.332 716.439 176.475 713.119Q173.617 709.798 170.841 706.41Q168.065 703.021 165.373 699.565Q162.681 696.109 160.074 692.589Q157.43 689.015 154.875 685.375Q152.32 681.736 149.857 678.035Q147.394 674.333 145.023 670.572Q142.652 666.81 140.376 662.991Q138.099 659.172 135.918 655.297Q133.737 651.422 131.654 647.495Q129.57 643.567 127.584 639.589Q125.598 635.61 123.712 631.584Q121.826 627.558 120.041 623.486Q118.255 619.413 116.571 615.298Q114.887 611.183 113.306 607.028Q111.726 602.872 110.248 598.678Q108.771 594.484 107.398 590.255Q106.026 586.026 104.759 581.764Q103.492 577.502 102.331 573.21Q101.17 568.918 100.117 564.599Q99.063 560.279 98.117 555.934Q97.171 551.59 96.3332 547.223Q95.4954 542.857 94.7664 538.471Q94.0374 534.084 93.4177 529.682Q92.7979 525.279 92.2877 520.862Q91.7776 516.445 91.3773 512.017Q90.9771 507.588 90.687 503.152Q90.397 498.715 90.2172 494.272Q90.0375 489.83 89.9683 485.384Q89.899 480.938 89.9402 476.492Q89.9815 472.046 90.1332 467.602Q90.2849 463.159 90.547 458.72Q90.8091 454.281 91.1815 449.851Q91.5538 445.42 92.0361 441Q92.5184 436.58 93.1105 432.173Q93.7025 427.767 94.4038 423.376Q94.942 420.008 95.5444 416.65Q96.1468 413.293 96.8132 409.948Q97.4795 406.602 98.2096 403.27Q98.9397 399.938 99.7332 396.621Q100.527 393.303 101.383 390.002Q102.24 386.7 103.16 383.415Q104.079 380.131 105.061 376.864Q106.043 373.597 107.087 370.35Q108.132 367.103 109.238 363.876Q110.344 360.649 111.511 357.444Q112.678 354.239 113.907 351.057Q115.135 347.875 116.424 344.717Q117.713 341.558 119.061 338.425Q120.41 335.292 121.819 332.186Q123.227 329.079 124.694 326Q126.162 322.921 127.688 319.87Q129.214 316.819 130.797 313.798Q132.381 310.777 134.023 307.787Q135.664 304.797 137.362 301.838Q139.06 298.88 140.814 295.954Q142.568 293.029 144.377 290.137Q146.187 287.246 148.052 284.39Q149.916 281.533 151.835 278.713Q153.753 275.893 155.725 273.109Q157.697 270.326 159.722 267.581Q161.747 264.836 163.824 262.13Q165.901 259.425 168.029 256.759Q170.157 254.093 172.336 251.468Q174.514 248.844 176.743 246.261Q178.971 243.679 181.248 241.139Q183.525 238.599 185.85 236.104Q188.176 233.608 190.548 231.157C201.847 219.457 214.107 207.848 227.288 198.269C230.136 194.814 241.346 187.692 245.541 184.829Q249.32 182.231 253.166 179.731Q257.011 177.232 260.919 174.832Q264.828 172.433 268.797 170.135Q272.767 167.838 276.794 165.644Q280.821 163.449 284.904 161.36Q288.986 159.27 293.122 157.287Q297.257 155.304 301.442 153.428Q305.627 151.552 309.859 149.785Q314.092 148.018 318.368 146.361Q322.644 144.704 326.962 143.158Q331.28 141.611 335.636 140.177Q339.993 138.743 344.385 137.422Q348.776 136.101 353.201 134.894Q357.626 133.687 362.08 132.595Q366.534 131.503 371.015 130.526Q375.496 129.549 380.001 128.688Z"/>
	<defs>
		<linearGradient id="gradient_1" gradientUnits="userSpaceOnUse" x1="443.4938" y1="722.68475" x2="502.72528" y2="220.48769">
			<stop offset="0" stop-color="#1A202A"/>
			<stop offset="1" stop-color="#303F51"/>
		</linearGradient>
	</defs>
	<path fill="url(#gradient_1)" d="M407.139 303.093C440.981 299.601 475.11 302.29 509.022 301.037C552.165 299.444 592.376 283.71 624.615 254.851C631.234 248.926 637.03 242.351 643.059 235.854Q660.777 250.41 676.473 267.127C680.801 271.769 687.445 281.035 691.925 284.554L695.526 281.459C708.139 272.353 721.644 263.103 736.289 257.567C737.299 257.097 737.804 256.595 738.917 256.891C735.251 302.663 750.185 331.793 772.021 370.304C781.207 386.504 790.097 402.987 795.962 420.734C805.099 448.38 806.46 477.173 804.233 506.041C802.701 525.895 800.214 546.447 794.807 565.652C794.757 565.418 794.7 565.185 794.657 564.949C794.155 562.19 795.952 557.105 796.599 554.197C797.636 549.537 802.649 528.253 800.955 524.992C800.949 525.154 800.947 525.316 800.937 525.477C800.429 533.53 797.203 542.34 794.76 550.024C794.019 552.353 793.569 554.752 792.754 557.054C789.538 566.148 785.374 574.491 781.026 583.071Q779.386 586.34 777.662 589.566Q775.939 592.792 774.134 595.973Q772.329 599.153 770.443 602.287Q768.558 605.421 766.593 608.506Q764.628 611.59 762.585 614.624Q760.542 617.657 758.422 620.637Q756.302 623.617 754.106 626.543Q751.911 629.468 749.642 632.336Q747.372 635.204 745.031 638.013Q742.689 640.823 740.276 643.571Q737.864 646.32 735.381 649.006Q732.899 651.692 730.35 654.314Q727.8 656.936 725.184 659.492Q722.568 662.048 719.887 664.536Q717.207 667.025 714.464 669.444Q711.721 671.863 708.917 674.211C676.605 701.771 638.271 723.455 598.733 738.834C596.169 739.832 586.194 744.25 583.91 743.88C583.694 743.846 583.369 743.695 583.161 743.606C583.131 743.524 583.077 743.447 583.071 743.36C583.014 742.526 583.009 742.556 583.351 741.905C601.481 707.528 607.367 669.753 601.848 631.369C595.511 587.287 570.718 544.425 534.983 517.62C535.148 519.415 535.408 521.113 535.813 522.871C539.854 553.478 530.174 586.157 511.498 610.503Q510.58 611.705 509.632 612.885Q508.684 614.064 507.707 615.22Q506.73 616.375 505.725 617.506Q504.72 618.637 503.687 619.743Q502.654 620.848 501.595 621.928Q500.535 623.008 499.448 624.061Q498.362 625.114 497.25 626.14Q496.138 627.166 495.001 628.164Q493.864 629.162 492.702 630.132Q491.541 631.102 490.355 632.042Q489.17 632.983 487.962 633.894Q486.754 634.804 485.524 635.685Q484.293 636.566 483.042 637.416Q481.79 638.266 480.518 639.084Q479.245 639.903 477.953 640.69Q476.66 641.477 475.349 642.231Q474.038 642.986 472.708 643.708Q471.378 644.43 470.031 645.119Q468.684 645.808 467.32 646.463Q465.956 647.118 464.577 647.739Q463.197 648.36 461.802 648.947Q460.408 649.534 458.999 650.086Q457.59 650.638 456.168 651.155Q454.746 651.672 453.312 652.154Q451.878 652.635 450.432 653.081Q448.986 653.527 447.53 653.938Q446.073 654.348 444.607 654.721Q443.141 655.095 441.666 655.433Q440.191 655.77 438.708 656.071Q437.226 656.371 435.736 656.635Q434.246 656.899 432.75 657.126Q431.254 657.353 429.753 657.543C419.19 658.913 408.757 658.599 398.167 657.849C391.135 656.098 383.826 655.661 376.726 653.742Q373.955 653 371.216 652.15Q368.477 651.3 365.773 650.343Q363.069 649.386 360.405 648.323Q357.741 647.26 355.121 646.094Q352.501 644.927 349.928 643.658Q347.356 642.389 344.836 641.02Q342.316 639.651 339.851 638.184Q337.386 636.716 334.982 635.153Q332.577 633.59 330.235 631.934Q327.893 630.277 325.619 628.53Q323.344 626.783 321.14 624.948Q318.936 623.112 316.806 621.192Q314.676 619.271 312.623 617.268Q310.57 615.265 308.597 613.183Q306.624 611.101 304.735 608.943Q302.846 606.785 301.043 604.554Q299.937 603.199 298.865 601.816Q297.793 600.434 296.755 599.026Q295.717 597.618 294.714 596.185Q293.711 594.752 292.743 593.295Q291.775 591.838 290.844 590.357Q289.912 588.877 289.017 587.374Q288.122 585.871 287.264 584.347Q286.406 582.823 285.585 581.278Q284.765 579.733 283.983 578.168Q283.2 576.604 282.457 575.021Q281.713 573.437 281.008 571.836Q280.304 570.235 279.638 568.617Q278.973 567 278.348 565.366Q277.722 563.732 277.137 562.084Q276.552 560.435 276.007 558.773Q275.463 557.111 274.959 555.436Q274.455 553.76 273.993 552.074Q273.531 550.387 273.11 548.689Q272.689 546.991 272.309 545.283Q271.93 543.576 271.593 541.859Q271.256 540.143 270.961 538.419Q270.665 536.695 270.413 534.964Q270.16 533.233 269.95 531.496Q269.74 529.76 269.572 528.018Q269.404 526.277 269.279 524.533Q269.154 522.788 269.072 521.04Q268.99 519.293 268.951 517.544Q268.912 515.796 268.915 514.046Q268.919 512.297 268.966 510.548Q269.012 508.8 269.102 507.053Q269.191 505.306 269.323 503.562Q269.455 501.817 269.63 500.077Q269.786 498.577 269.979 497.082Q270.172 495.587 270.402 494.097Q270.632 492.606 270.898 491.122Q271.165 489.638 271.468 488.161Q271.772 486.685 272.111 485.216Q272.451 483.747 272.827 482.286Q273.203 480.826 273.615 479.376Q274.026 477.925 274.474 476.486Q274.922 475.046 275.405 473.618Q275.888 472.189 276.406 470.773Q276.924 469.358 277.477 467.955Q278.03 466.552 278.618 465.164Q279.205 463.775 279.827 462.402Q280.449 461.028 281.104 459.67Q281.76 458.312 282.449 456.971Q283.138 455.63 283.859 454.306Q284.581 452.982 285.335 451.677Q286.09 450.371 286.876 449.085Q287.662 447.798 288.48 446.532Q289.298 445.265 290.147 444.019Q290.996 442.773 291.876 441.548Q292.755 440.324 293.665 439.121Q294.574 437.919 295.513 436.739Q296.452 435.559 297.42 434.403Q298.388 433.247 299.384 432.115Q300.38 430.983 301.404 429.877Q302.428 428.77 303.478 427.689Q304.529 426.607 305.607 425.552Q306.684 424.497 307.787 423.47Q308.89 422.442 310.018 421.441Q311.146 420.441 312.298 419.469Q313.451 418.496 314.627 417.553C340.666 396.809 372.884 387.976 405.825 391.604C406.813 391.798 407.78 391.879 408.782 391.964L408.662 391.322C379.873 355.662 345.265 335.949 300.708 326.417C307.591 323.299 315.313 321.245 322.566 319.158Q337.228 314.82 352.162 311.541Q367.097 308.262 382.227 306.058C390.315 304.838 399.272 305.142 407.139 303.093Z"/>
	<defs>
		<linearGradient id="gradient_2" gradientUnits="userSpaceOnUse" x1="806.54633" y1="472.09482" x2="542.95306" y2="523.04669">
			<stop offset="0" stop-color="#2A8EB9"/>
			<stop offset="1" stop-color="#66CCEF"/>
		</linearGradient>
	</defs>
	<path fill="url(#gradient_2)" d="M736.289 257.567C737.299 257.097 737.804 256.595 738.917 256.891C735.251 302.663 750.185 331.793 772.021 370.304C781.207 386.504 790.097 402.987 795.962 420.734C805.099 448.38 806.46 477.173 804.233 506.041C802.701 525.895 800.214 546.447 794.807 565.652C794.757 565.418 794.7 565.185 794.657 564.949C794.155 562.19 795.952 557.105 796.599 554.197C797.636 549.537 802.649 528.253 800.955 524.992C800.949 525.154 800.947 525.316 800.937 525.477C800.429 533.53 797.203 542.34 794.76 550.024C794.019 552.353 793.569 554.752 792.754 557.054C789.538 566.148 785.374 574.491 781.026 583.071Q779.386 586.34 777.662 589.566Q775.939 592.792 774.134 595.973Q772.329 599.153 770.443 602.287Q768.558 605.421 766.593 608.506Q764.628 611.59 762.585 614.624Q760.542 617.657 758.422 620.637Q756.302 623.617 754.106 626.543Q751.911 629.468 749.642 632.336Q747.372 635.204 745.031 638.013Q742.689 640.823 740.276 643.571Q737.864 646.32 735.381 649.006Q732.899 651.692 730.35 654.314Q727.8 656.936 725.184 659.492Q722.568 662.048 719.887 664.536Q717.207 667.025 714.464 669.444Q711.721 671.863 708.917 674.211C676.605 701.771 638.271 723.455 598.733 738.834C596.169 739.832 586.194 744.25 583.91 743.88C583.694 743.846 583.369 743.695 583.161 743.606C594.172 734.126 604.37 723.975 613.403 712.577C652.841 662.811 670.64 592.961 652.565 531.18C643.901 501.563 630.796 476.05 627.21 444.739Q626.887 441.877 626.654 439.007Q626.421 436.137 626.279 433.26Q626.137 430.384 626.086 427.505Q626.035 424.626 626.075 421.746Q626.115 418.867 626.246 415.99Q626.377 413.113 626.598 410.242Q626.82 407.371 627.132 404.508Q627.445 401.645 627.847 398.794Q628.25 395.942 628.742 393.105Q629.234 390.267 629.816 387.447Q630.398 384.627 631.069 381.826Q631.739 379.025 632.498 376.247Q633.257 373.469 634.103 370.717Q634.949 367.964 635.881 365.239Q636.814 362.515 637.832 359.821Q638.85 357.127 639.953 354.467C641.926 349.749 643.966 343.857 647.139 339.868C648.808 335.913 651.224 332.141 653.491 328.497C663.962 311.661 676.978 297.491 691.925 284.554L695.526 281.459C708.139 272.353 721.644 263.103 736.289 257.567Z"/>
	<path fill="#4BB5DA" d="M695.526 281.459C708.139 272.353 721.644 263.103 736.289 257.567C731.712 264.678 724.664 270.627 719.574 277.508Q716.576 281.532 713.793 285.707Q711.01 289.882 708.45 294.197Q705.889 298.513 703.557 302.956Q701.226 307.399 699.13 311.958Q697.035 316.517 695.181 321.18Q693.327 325.843 691.719 330.596Q690.111 335.349 688.755 340.18Q687.398 345.011 686.296 349.906C685.322 354.373 684.073 359.111 683.837 363.681C683.28 362.133 683.98 360.56 684.194 358.993C686.629 341.17 692.911 323.895 700.551 307.685C701.682 305.284 702.708 302.657 704.052 300.382C705.997 297.09 708.33 294.103 709.778 290.543C711.195 287.06 715.696 283.899 716.521 280.467C716.623 280.043 716.275 279.069 716.201 278.652C716.016 277.605 716.346 276.971 716.685 276.012C717.129 274.753 717.496 273.715 717.456 272.357L717.07 271.891C716.601 272.017 716.034 272.291 715.562 272.169C716.575 270.856 717.096 269.974 718.701 269.415C719.504 269.136 719.176 269.303 719.556 268.745C719.979 268.121 720.464 267.821 721.076 267.408L721.369 266.722C717.863 266.19 708.307 274.231 704.559 276.2C701.678 277.713 699.069 279.99 696.511 281.991Q691.01 286.317 685.847 291.04Q680.684 295.764 675.887 300.859Q671.09 305.955 666.687 311.393Q662.283 316.832 658.297 322.584C654.422 328.234 651.414 334.353 647.691 340.042L647.139 339.868C648.808 335.913 651.224 332.141 653.491 328.497C663.962 311.661 676.978 297.491 691.925 284.554L695.526 281.459Z"/>
	<defs>
		<linearGradient id="gradient_3" gradientUnits="userSpaceOnUse" x1="491.01382" y1="187.28246" x2="669.12305" y2="184.73601">
			<stop offset="0" stop-color="#42AED1"/>
			<stop offset="1" stop-color="#69CAF6"/>
		</linearGradient>
	</defs>
	<path fill="url(#gradient_3)" d="M480.93 125.065C486.35 126.623 492.022 127.367 497.48 128.892C512.103 132.979 525.528 138.909 539.081 145.678C542.496 147.492 545.999 149.712 549.538 151.222C551.132 152.168 552.711 153.153 554.37 153.979C576.256 167.083 599.256 179.659 624.329 185.338L630.214 186.661C639.532 188.041 648.796 189.057 658.226 189.251C661.814 189.325 667.445 187.755 670.688 188.863C670.677 189.662 670.817 189.397 670.574 189.752C666.55 193.044 663.299 197.455 659.49 201.035C650.024 209.932 638.747 217.733 627.276 223.811C596.659 240.032 557.139 248.804 522.498 245.342C516.475 244.74 510.262 244.097 504.509 242.11C501.905 241.211 501.097 238.245 499.347 236.403C497.474 234.433 495.14 233.685 493.882 231.032C490.353 223.589 491.373 213.993 493.789 206.397C495.1 202.276 497.948 202.401 499.02 197.447C501.105 187.818 500.249 188.082 495.232 180.267C495.54 178.424 492.458 170.234 492.136 166.93C491.63 161.742 494.664 146.194 493.993 144.445C493.104 142.129 493.018 139.133 492.595 136.641C493.119 134.805 494.425 132.944 495.714 131.54C496.258 130.947 496.728 131.125 497.491 131.071L497.268 130.707C495.205 129.438 493.035 128.283 490.593 128.01C487.782 127.695 485.041 126.813 482.255 126.302C481.024 130.526 483.972 148.41 484.902 153.728L485.986 153.784L485.291 154.108C485.505 155.265 486.111 156.279 486.222 157.479C486.857 164.375 490.407 171.353 492.662 177.868C493.205 178.16 493.75 178.435 494.307 178.7C493.855 179.691 493.773 180.224 493.849 181.309C494.289 181.96 494.621 182.494 494.866 183.248C495.788 186.091 498.664 189.267 498.87 192.096L498.383 192.483C496.354 192.061 495.197 190.741 494.068 189.106L494.522 188.42C495.833 189.387 497.038 190.944 498.183 192.127Q496.147 188.262 494.339 184.285Q492.531 180.308 490.958 176.233Q489.385 172.157 488.052 167.997Q486.719 163.837 485.63 159.606Q484.542 155.375 483.702 151.088Q482.861 146.801 482.272 142.473Q481.683 138.144 481.348 133.788Q481.012 129.433 480.93 125.065Z"/>
	<path fill="#4BB5DA" d="M535.813 522.871L536.287 522.123C539.166 525.252 540.998 531.033 542.649 534.942C555.203 564.659 560.187 599.686 558.876 631.816C557.588 663.384 546.435 693.167 522.789 714.875C493.11 742.121 451.776 749.76 412.748 747.975Q403.997 747.522 395.282 746.614C402.649 746.176 410.561 747.497 418.002 747.701C438.643 748.266 459.554 745.928 479.147 739.272C482.261 738.214 490.139 735.711 492.519 733.562L492.428 733.086L491.014 732.835L490.567 731.927C491.907 729.71 491.045 724.503 491.103 721.766C491.172 718.503 491.589 715.251 491.683 711.982C491.853 706.08 491.72 700.139 491.711 694.234C491.698 686.185 491.214 677.823 491.669 669.799C491.818 667.173 493.097 664.634 493.154 662.008C493.26 657.154 491.652 652.207 491.828 647.328C491.913 644.973 493.311 642.501 492.921 640.178C491.969 639.373 490.789 638.81 490.822 637.407C490.831 637.037 491.077 636.386 491.181 636.042C491.608 634.637 491.235 634.033 490.828 632.648C490.729 632.742 490.631 632.837 490.531 632.929C488.891 634.435 486.975 635.24 485.253 636.571C462.438 654.212 432.362 660.496 404.037 659.01C401.166 658.859 398.224 658.7 395.401 658.141C396.333 657.9 397.21 657.887 398.167 657.849C408.757 658.599 419.19 658.913 429.753 657.543Q431.254 657.353 432.75 657.126Q434.246 656.899 435.736 656.635Q437.226 656.371 438.708 656.071Q440.191 655.77 441.666 655.433Q443.141 655.095 444.607 654.721Q446.073 654.348 447.53 653.938Q448.986 653.528 450.432 653.082Q451.878 652.635 453.312 652.154Q454.746 651.672 456.168 651.155Q457.59 650.638 458.999 650.086Q460.408 649.534 461.802 648.947Q463.197 648.36 464.577 647.739Q465.956 647.118 467.32 646.463Q468.684 645.808 470.031 645.119Q471.378 644.43 472.708 643.708Q474.038 642.986 475.349 642.231Q476.66 641.477 477.953 640.69Q479.245 639.903 480.518 639.084Q481.79 638.266 483.042 637.416Q484.293 636.566 485.524 635.685Q486.754 634.804 487.962 633.894Q489.17 632.983 490.355 632.042Q491.541 631.102 492.702 630.132Q493.864 629.162 495.001 628.164Q496.138 627.166 497.25 626.14Q498.362 625.114 499.448 624.061Q500.535 623.008 501.595 621.928Q502.654 620.848 503.687 619.743Q504.72 618.637 505.725 617.506Q506.73 616.375 507.707 615.22Q508.684 614.064 509.632 612.885Q510.58 611.705 511.498 610.503C530.174 586.157 539.854 553.478 535.813 522.871Z"/>
	<defs>
		<linearGradient id="gradient_4" gradientUnits="userSpaceOnUse" x1="423.27835" y1="126.20377" x2="459.09534" y2="42.926773">
			<stop offset="0" stop-color="#44AFD0"/>
			<stop offset="1" stop-color="#72D1FC"/>
		</linearGradient>
	</defs>
	<path fill="url(#gradient_4)" d="M380.001 128.688C380.428 128.634 380.855 128.584 381.282 128.525C382.931 128.299 383.731 128.097 384.7 126.628C385.976 124.696 386.317 121.276 387.285 119.012C391 110.318 395.492 102.087 401.229 94.5478Q401.982 93.5626 402.758 92.5963Q403.535 91.6301 404.336 90.6834Q405.136 89.7367 405.96 88.8102Q406.784 87.8837 407.63 86.9779Q408.477 86.0721 409.346 85.1876Q410.215 84.3031 411.105 83.4404Q411.995 82.5777 412.907 81.7374Q413.818 80.8971 414.751 80.0796Q415.683 79.2622 416.635 78.4681Q417.587 77.6741 418.559 76.9039Q419.53 76.1337 420.52 75.3879Q421.511 74.642 422.519 73.921Q423.528 73.2 424.554 72.5042Q425.58 71.8084 426.623 71.1383Q427.666 70.4682 428.726 69.8241Q429.785 69.1801 430.86 68.5626Q431.935 67.9451 433.025 67.3544Q434.115 66.7637 435.22 66.2003Q436.324 65.6369 437.442 65.101Q438.56 64.5651 439.691 64.0572Q440.822 63.5492 441.965 63.0695Q443.108 62.5898 444.263 62.1386Q445.418 61.6874 446.584 61.2649Q447.749 60.8425 448.925 60.4492Q450.101 60.0558 451.286 59.6917Q452.471 59.3277 453.665 58.9931Q454.859 58.6586 456.06 58.3537Q457.262 58.0489 458.471 57.774Q459.68 57.4991 460.895 57.2543Q462.111 57.0095 463.332 56.7949Q464.553 56.5803 465.779 56.3961Q467.005 56.2118 468.235 56.0581C472.625 55.4896 491.229 54.0476 494.333 56.4451C469.048 67.6958 447.261 89.9023 437.305 115.812C430.858 132.591 429.7 148.859 431.872 166.583C429.581 160.974 429.943 149.953 430.318 143.794C430.469 141.322 432.464 132.54 431.705 130.8C429.914 126.701 412.699 119.535 408.178 117.279C405.828 116.106 403.319 114.359 400.9 113.431C397.341 112.067 396.687 114.08 393.17 110.565L393.005 109.598C391.821 111.592 390.535 113.608 389.626 115.743C387.68 120.314 386.917 128.431 381.504 130.061C381.006 130.211 380.573 130.296 380.062 130.295L380.001 128.688Z"/>
	<defs>
		<linearGradient id="gradient_5" gradientUnits="userSpaceOnUse" x1="326.03741" y1="354.67715" x2="410.1413" y2="371.04541">
			<stop offset="0" stop-color="#48ADD2"/>
			<stop offset="1" stop-color="#6FD0FA"/>
		</linearGradient>
	</defs>
	<path fill="url(#gradient_5)" d="M279.486 324.306C284.113 324.372 288.61 324.914 293.19 325.521C295.567 325.836 298.327 326.523 300.708 326.417C345.265 335.949 379.873 355.662 408.662 391.322L408.782 391.964C407.78 391.879 406.813 391.798 405.825 391.604C405.759 391.571 405.689 391.544 405.627 391.505C400.355 388.12 394.172 385.809 388.336 383.551Q383.347 381.62 378.271 379.93Q373.195 378.241 368.044 376.797Q362.893 375.353 357.678 374.158Q352.463 372.963 347.197 372.02Q341.931 371.077 336.626 370.388Q331.321 369.699 325.989 369.266Q320.657 368.832 315.31 368.655Q309.963 368.478 304.614 368.558Q295.185 368.674 285.792 369.514C282.111 369.873 278.069 370.975 274.411 370.761C279.457 368.146 306.387 367.806 313.663 368.069C315.581 368.139 323.829 369.111 325.027 368.731C325.279 368.651 325.426 368.386 325.626 368.214C325.892 366.434 325.755 364.512 326.116 362.79C326.665 360.163 328.288 357.978 328.406 355.198C328.509 352.784 328.938 350.027 329.662 347.715C330.273 345.762 328.204 341.817 328.988 338.979C329.681 338.284 330.284 337.644 330.855 336.84L330.6 335.704C327.822 334.041 324.236 333.219 321.133 332.29C306.317 327.854 291.559 325.283 276.099 324.688L276.081 324.391L275.491 324.555L279.486 324.306Z"/>
	<path fill="#4BB5DA" d="M227.288 198.269C230.136 194.814 241.346 187.692 245.541 184.829Q249.32 182.231 253.166 179.731Q257.011 177.232 260.919 174.832Q264.828 172.433 268.797 170.135Q272.767 167.838 276.794 165.644Q280.821 163.449 284.904 161.36Q288.986 159.27 293.122 157.287Q297.257 155.304 301.442 153.428Q305.627 151.552 309.859 149.785Q314.092 148.018 318.368 146.361Q322.644 144.704 326.962 143.158Q331.28 141.611 335.636 140.177Q339.993 138.743 344.385 137.422Q348.776 136.101 353.201 134.894Q357.626 133.687 362.08 132.595Q366.534 131.503 371.015 130.526Q375.496 129.549 380.001 128.688L380.062 130.295C374.92 130.681 368.784 133.468 363.897 135.106Q357.526 137.241 351.231 139.59Q344.936 141.939 338.723 144.499Q332.511 147.059 326.388 149.827Q320.266 152.596 314.24 155.569Q308.215 158.542 302.293 161.717Q296.371 164.892 290.56 168.265Q284.749 171.638 279.055 175.205Q273.36 178.773 267.79 182.53C261.358 186.961 255.105 191.849 249.068 196.796C245.971 199.333 242.559 202.979 239.111 204.907C239.87 203.68 241.217 202.883 241.477 201.474C239.392 200.149 236.238 201.366 235.607 198.194C235.318 196.74 235.9 195.823 236.508 194.592C236.964 193.667 237.328 193.379 236.98 192.327C233.646 193.041 230.981 197.439 227.629 198.606L227.288 198.269Z"/>
	<path fill="#14619B" d="M273.429 323.712C306.461 305.843 345.081 303.618 381.848 302.298C388.663 302.053 402.131 300.705 408.228 302.497L406.467 302.663L407.139 303.093C399.272 305.142 390.315 304.838 382.227 306.058Q367.097 308.262 352.162 311.541Q337.228 314.82 322.566 319.158C315.313 321.245 307.591 323.299 300.708 326.417C298.327 326.523 295.567 325.836 293.19 325.521C288.61 324.914 284.113 324.372 279.486 324.306C277.562 323.852 275.403 323.862 273.429 323.712Z"/>
</svg>
